HIERARCHY
ROOT Hips
{
	OFFSET 0.00000 0.00000 0.00000
	CHANNELS 6 Xposition Yposition Zposition Zrotation Yrotation Xrotation 
	JOINT LHipJoint
	{
		OFFSET 0 0 0
		CHANNELS 3 Zrotation Yrotation Xrotation
		JOINT LeftUpLeg
		{
			OFFSET 1.26600 -1.82114 0.91038
			CHANNELS 3 Zrotation Yrotation Xrotation
			JOINT LeftLeg
			{
				OFFSET 2.50076 -6.87080 0.00000
				CHANNELS 3 Zrotation Yrotation Xrotation
				JOINT LeftFoot
				{
					OFFSET 2.57364 -7.07102 0.00000
					CHANNELS 3 Zrotation Yrotation Xrotation
					JOINT LeftToeBase
					{
						OFFSET 0.13572 -0.37290 1.97004
						CHANNELS 3 Zrotation Yrotation Xrotation
						End Site
						{
							OFFSET 0.00000 -0.00000 1.01383
						}
					}
				}
			}
		}
	}
	JOINT RHipJoint
	{
		OFFSET 0 0 0
		CHANNELS 3 Zrotation Yrotation Xrotation
		JOINT RightUpLeg
		{
			OFFSET -1.20803 -1.82114 0.91038
			CHANNELS 3 Zrotation Yrotation Xrotation
			JOINT RightLeg
			{
				OFFSET -2.54916 -7.00377 0.00000
				CHANNELS 3 Zrotation Yrotation Xrotation
				JOINT RightFoot
				{
					OFFSET -2.56374 -7.04382 0.00000
					CHANNELS 3 Zrotation Yrotation Xrotation
					JOINT RightToeBase
					{
						OFFSET -0.23520 -0.64621 2.09921
						CHANNELS 3 Zrotation Yrotation Xrotation
						End Site
						{
							OFFSET -0.00000 -0.00000 1.10065
						}
					}
				}
			}
		}
	}
	JOINT LowerBack
	{
		OFFSET 0 0 0
		CHANNELS 3 Zrotation Yrotation Xrotation
		JOINT Spine
		{
			OFFSET 0.05492 2.10797 -0.12074
			CHANNELS 3 Zrotation Yrotation Xrotation
			JOINT Spine1
			{
				OFFSET 0.04577 2.11592 -0.04483
				CHANNELS 3 Zrotation Yrotation Xrotation
				JOINT Neck
				{
					OFFSET 0 0 0
					CHANNELS 3 Zrotation Yrotation Xrotation
					JOINT Neck1
					{
						OFFSET -0.10759 1.80167 0.15770
						CHANNELS 3 Zrotation Yrotation Xrotation
						JOINT Head
						{
							OFFSET 0.09237 1.77509 -0.40848
							CHANNELS 3 Zrotation Yrotation Xrotation
							End Site
							{
								OFFSET 0.03805 1.84093 -0.15754
							}
						}
					}
				}
				JOINT LeftShoulder
				{
					OFFSET 0 0 0
					CHANNELS 3 Zrotation Yrotation Xrotation
					JOINT LeftArm
					{
						OFFSET 3.42372 1.09575 -0.28209
						CHANNELS 3 Zrotation Yrotation Xrotation
						JOINT LeftForeArm
						{
							OFFSET 4.95681 -0.00000 0.00000
							CHANNELS 3 Zrotation Yrotation Xrotation
							JOINT LeftHand
							{
								OFFSET 3.40915 -0.00000 0.00000
								CHANNELS 3 Zrotation Yrotation Xrotation
								JOINT LeftFingerBase
								{
									OFFSET 0 0 0
									CHANNELS 3 Zrotation Yrotation Xrotation
									JOINT LeftHandIndex1
									{
										OFFSET 0.61640 -0.00000 0.00000
										CHANNELS 3 Zrotation Yrotation Xrotation
										End Site
										{
											OFFSET 0.49696 -0.00000 0.00000
										}
									}
								}
								JOINT LThumb
								{
									OFFSET 0 0 0
									CHANNELS 3 Zrotation Yrotation Xrotation
									End Site
									{
										OFFSET 0.50455 -0.00000 0.50455
									}
								}
							}
						}
					}
				}
				JOINT RightShoulder
				{
					OFFSET 0 0 0
					CHANNELS 3 Zrotation Yrotation Xrotation
					JOINT RightArm
					{
						OFFSET -3.24731 1.15872 -0.32221
						CHANNELS 3 Zrotation Yrotation Xrotation
						JOINT RightForeArm
						{
							OFFSET -5.35200 -0.00000 0.00000
							CHANNELS 3 Zrotation Yrotation Xrotation
							JOINT RightHand
							{
								OFFSET -3.43721 -0.00000 -0.00000
								CHANNELS 3 Zrotation Yrotation Xrotation
								JOINT RightFingerBase
								{
									OFFSET 0 0 0
									CHANNELS 3 Zrotation Yrotation Xrotation
									JOINT RightHandIndex1
									{
										OFFSET -0.72009 -0.00000 0.00000
										CHANNELS 3 Zrotation Yrotation Xrotation
										End Site
										{
											OFFSET -0.58056 -0.00000 0.00000
										}
									}
								}
								JOINT RThumb
								{
									OFFSET 0 0 0
									CHANNELS 3 Zrotation Yrotation Xrotation
									End Site
									{
										OFFSET -0.58942 -0.00000 0.58942
									}
								}
							}
						}
					}
				}
			}
		}
	}
}
MOTION
Frames: 10
Frame Time: 0.028169
0.00 0.00 0.00 352.8400 68.2312 713.4200 0.0000 0.0000 0.0000 -14.6233 -8.2595 -11.1286 2.0424 8.9539 25.6513 -1.2557 -21.0942 -1.0978 0.8975 6.0379 16.8945 0.0000 0.0000 0.0000 19.5730 7.3972 -8.2414 -2.5546 -9.9366 28.7716 0.2285 20.6338 -12.6176 -0.5362 -4.6921 13.0325 3.3836 3.2005 5.3426 1.4420 4.4913 1.6751 -0.6821 2.2554 -1.1205 -10.4970 -7.2596 -11.9165 8.2583 -9.8268 35.3341 3.7723 -4.1502 15.3768 0.0000 -0.0000 0.0000 -91.1148 4.4496 17.5431 11.3074 -18.7579 -1.8736 -0.0000 -0.0000 5.0595 15.7381 21.3798 5.8655 -7.1250 0.0000 -0.0000 -13.1549 51.6407 -2.1829 0.0000 -0.0000 0.0000 86.4085 1.0270 14.3421 -17.3725 27.3462 -4.2570 0.0000 -0.0000 -18.0312 -20.8397 9.2287 -3.4935 7.1250 -0.0000 -0.0000 4.3659 -20.1313 2.6040
0.00 0.00 0.00 359.1410 -3.7468 717.5250 0.0000 0.0000 0.0000 -18.4583 -2.7933 -11.4397 0.9694 6.2683 17.5650 -0.4817 -12.3177 2.6496 0.2559 3.2545 8.9881 0.0000 0.0000 0.0000 19.6894 -3.0398 -11.8214 -10.3039 -17.5772 60.4992 -0.1619 -6.7828 -12.8986 -0.2801 -3.4038 9.4051 -1.0924 0.2683 6.6416 2.6046 0.3183 3.0627 3.2762 0.1323 -0.5861 -9.8341 -2.5932 -11.0526 4.1779 -2.8359 37.3754 3.0620 -2.0548 15.1067 -0.0000 -0.0000 0.0000 -89.0992 2.6286 21.4824 18.7287 -29.0802 -4.8983 -0.0000 0.0000 -3.5508 18.4319 18.9425 6.1746 -7.1250 0.0000 -0.0000 -9.6657 49.6220 -1.1107 -0.0000 -0.0000 0.0000 85.7807 -1.5722 11.9996 -15.5033 24.8426 -3.4346 0.0000 -0.0000 -9.5099 -19.1308 11.0261 -3.7956 7.1250 -0.0000 -0.0000 5.6048 -18.3585 3.5714
0.00 0.00 0.00 231.2480 -79.0985 843.3500 0.0000 0.0000 0.0000 6.6338 -7.8538 -79.9265 22.9660 19.7878 98.7016 -0.9674 -17.1930 4.5187 0.1574 2.5565 7.0463 0.0000 0.0000 0.0000 32.8705 -5.9413 13.9558 -0.6889 -5.3064 14.7847 -0.4786 4.1691 -12.3108 -0.0021 0.2928 -0.8045 9.7021 1.2122 18.2246 4.2156 2.8256 6.8465 -1.5300 1.2155 -2.4970 -10.4498 -1.8807 -16.1949 4.4696 -1.8399 31.9146 3.2301 -1.7484 13.6550 0.0000 -0.0000 0.0000 -92.2432 1.2308 11.4515 11.9543 -19.7360 -2.0868 -0.0000 -0.0000 7.3274 17.1618 21.5794 6.4800 -7.1250 0.0000 -0.0000 -11.8405 52.0830 -2.0888 0.0000 -0.0000 0.0000 81.6415 5.4122 25.4681 -19.9723 30.6089 -5.5172 0.0000 -0.0000 -16.4911 -21.5504 10.3271 -4.0496 7.1250 -0.0000 -0.0000 3.8817 -18.9092 2.4198
0.00 0.00 0.00 261.6760 -80.8038 816.1460 0.0000 0.0000 0.0000 -3.0622 -7.8007 -40.5162 11.2535 18.0569 63.6020 -0.2115 -9.4993 8.7319 0.0041 0.4134 1.1358 0.0000 0.0000 0.0000 34.6422 -4.1635 0.9969 -1.7425 -8.3077 23.6526 -1.0904 4.4932 -18.7519 -0.3262 -3.6710 10.1530 9.8027 0.9559 10.2182 5.2437 2.0753 3.4437 -0.2516 0.9075 -1.9404 -9.5693 -1.5809 -13.0212 4.1153 -2.9372 38.9954 2.8597 -2.6318 16.3717 -0.0000 -0.0000 0.0000 -91.0278 3.9188 18.8428 15.4285 -24.7397 -3.4033 -0.0000 0.0000 -0.6682 17.9501 20.4069 6.4447 -7.1250 0.0000 -0.0000 -10.6264 51.0343 -1.5951 -0.0000 -0.0000 0.0000 84.1085 -1.7421 17.6344 -14.9535 24.0813 -3.2069 0.0000 -0.0000 -9.5462 -20.4558 11.0693 -4.0963 7.1250 -0.0000 -0.0000 4.6729 -18.2086 2.9887
0.00 0.00 0.00 253.6790 -82.6595 823.2850 0.0000 0.0000 0.0000 -5.2801 -9.2394 -36.8299 6.7164 15.0884 47.7936 0.6870 -6.0846 19.0358 0.0374 -1.2480 -3.4315 0.0000 0.0000 0.0000 32.0424 -4.3830 -1.9800 -3.6946 -11.7425 34.8271 -1.6433 5.7286 -23.0624 -0.0299 -1.1163 3.0689 8.0520 1.3971 10.3826 4.2566 2.5313 3.5397 -0.3763 1.1620 -1.9439 -8.8723 -1.5086 -12.0569 4.7113 -3.4910 39.2874 2.9097 -2.7246 16.3270 -0.0000 -0.0000 0.0000 -89.2276 5.5968 20.3636 15.0391 -24.2005 -3.2419 -0.0000 0.0000 -1.3763 18.0224 20.8316 6.5999 -7.1250 0.0000 -0.0000 -10.7095 51.4766 -1.7250 -0.0000 -0.0000 0.0000 84.2338 -2.5853 18.8138 -16.8330 26.6372 -4.0122 0.0000 -0.0000 -11.4093 -20.2681 11.1111 -4.0705 7.1250 -0.0000 -0.0000 4.8059 -18.1798 3.0774
0.00 0.00 0.00 234.6960 -82.3982 839.8440 0.0000 0.0000 0.0000 -6.7016 -8.1406 -27.3150 2.8795 10.4973 30.6027 1.7612 6.5854 23.8386 0.0471 -1.4001 -3.8504 0.0000 0.0000 0.0000 30.1088 -3.8040 -3.9126 -7.2239 -15.5176 49.7162 -2.0270 8.0056 -25.5658 -0.1359 2.3762 -6.5464 6.6407 1.1029 10.6223 4.4417 1.8839 4.6992 0.6799 0.8504 -0.9611 -9.2547 -0.5567 -12.4559 4.0559 -1.7088 39.8736 2.9946 -2.1772 16.5566 -0.0000 -0.0000 0.0000 -89.9312 6.2844 17.4103 14.3315 -23.2067 -2.9575 -0.0000 -0.0000 0.4518 17.8693 21.2454 6.6634 -7.1250 0.0000 -0.0000 -11.0143 51.8688 -1.8818 -0.0000 -0.0000 0.0000 82.4724 -1.7097 22.0265 -18.8628 29.2478 -4.9636 0.0000 -0.0000 -14.0480 -20.2068 10.6846 -3.9038 7.1250 -0.0000 -0.0000 4.8405 -18.6352 3.0509
0.00 0.00 0.00 224.9320 -81.1565 848.4290 0.0000 0.0000 0.0000 -8.1708 -5.0243 -16.6184 0.7538 5.5454 15.4709 2.1151 14.8702 26.6167 0.0043 -0.4250 -1.1679 0.0000 0.0000 0.0000 27.1094 -5.6687 -5.1761 -12.0201 -18.3992 66.0527 -3.0169 13.7285 -31.4645 -0.7307 5.4615 -15.2296 6.0456 0.6838 7.1657 4.7999 0.9838 4.5400 1.5094 0.4331 0.7218 -9.9119 0.4917 -11.5152 3.8380 -0.2493 41.3107 3.2649 -1.8721 16.9610 -0.0000 0.0000 0.0000 -90.3655 10.0359 15.3897 14.5317 -23.4897 -3.0368 -0.0000 -0.0000 0.0654 17.7705 20.9350 6.5329 -7.1250 0.0000 -0.0000 -10.9948 51.5385 -1.7887 -0.0000 0.0000 0.0000 81.0218 -3.8886 23.3914 -22.1115 33.1028 -6.6466 0.0000 -0.0000 -15.7011 -20.7595 9.9093 -3.7322 7.1250 -0.0000 -0.0000 4.4343 -19.4142 2.7163
0.00 0.00 0.00 220.1730 -79.7527 852.7100 0.0000 0.0000 0.0000 -9.3094 -0.1628 -9.3784 0.3218 3.6463 10.0836 2.9522 15.0584 31.2518 0.0669 -1.6683 -4.5899 0.0000 0.0000 0.0000 24.0272 -5.9887 -6.2538 -17.1091 -19.7984 81.5202 -2.9251 18.0183 -31.5442 -0.9290 6.1401 -17.1914 6.2793 0.6699 5.3974 5.0350 0.8917 3.7737 1.6392 0.3970 0.9065 -8.6965 0.5411 -11.1017 2.3874 -0.1042 41.5942 2.3965 -1.8763 17.0094 0.0000 0.0000 0.0000 -91.0300 13.1587 14.4191 14.9976 -24.1428 -3.2250 -0.0000 0.0000 -1.6041 18.6020 21.4370 7.0128 -7.1250 0.0000 -0.0000 -10.3627 52.1900 -1.8505 0.0000 0.0000 0.0000 81.1113 -7.1147 20.9177 -24.4195 35.6048 -7.9495 0.0000 -0.0000 -15.7844 -20.9637 9.7850 -3.7256 7.1250 -0.0000 -0.0000 4.2865 -19.5313 2.6141
0.00 0.00 0.00 209.9550 -80.6539 862.6830 0.0000 0.0000 0.0000 -13.0900 1.0258 -2.2319 0.3994 4.0575 11.2384 1.9159 4.4301 25.1486 0.1766 2.7070 7.4640 0.0000 0.0000 0.0000 15.2766 -6.5898 -7.8406 -22.8547 -19.8035 98.3729 -0.7433 25.6189 -22.5669 -0.3652 3.8821 -10.7451 3.8698 0.6545 3.7991 4.6622 0.7851 3.0148 2.6062 0.3362 0.9656 -8.7474 0.1896 -12.5145 2.9490 -0.5117 40.9714 2.5992 -1.9107 17.0536 -0.0000 0.0000 0.0000 -91.9394 14.9735 13.7090 14.7345 -23.7750 -3.1181 -0.0000 0.0000 -2.2529 18.9499 22.2582 7.4100 -7.1250 0.0000 -0.0000 -10.3314 53.0853 -2.0725 -0.0000 0.0000 0.0000 80.9090 -10.5255 19.2965 -25.2834 36.4923 -8.4579 0.0000 -0.0000 -17.8627 -21.5990 9.0707 -3.5715 7.1250 -0.0000 -0.0000 3.8187 -20.2473 2.2662
0.00 0.00 0.00 203.4760 -82.3486 868.4640 0.0000 0.0000 0.0000 -15.9007 4.8753 -5.0163 1.4914 7.7149 21.8515 -0.3151 -10.9865 9.1427 0.2023 2.8965 7.9907 0.0000 0.0000 0.0000 7.9650 -8.5151 -8.3105 -25.3798 -19.2915 105.9100 1.6281 29.9302 -10.9705 -0.0504 1.4486 -3.9840 2.1635 0.5982 5.4496 3.8831 0.8399 2.2089 2.7326 0.3668 -0.8071 -8.1947 -0.3023 -13.5340 3.3423 -1.4488 41.0768 2.5252 -2.1409 17.4559 -0.0000 -0.0000 0.0000 -91.5082 15.0556 13.2993 13.8316 -22.4934 -2.7634 -0.0000 0.0000 -1.3758 18.6579 20.2249 6.6581 -7.1250 0.0000 -0.0000 -9.8713 50.9668 -1.4634 -0.0000 -0.0000 0.0000 81.8528 -12.2203 16.8403 -24.4178 35.6029 -7.9485 0.0000 -0.0000 -17.1001 -20.2999 9.5814 -3.5233 7.1250 -0.0000 -0.0000 4.7569 -19.7947 2.8748
